<svg width="26" height="26" viewBox="0 0 26 26" fill="none" xmlns="http://www.w3.org/2000/svg">
<rect width="26" height="26" rx="8" fill="#0E0E0D"/>
<path d="M10.733 10.28C9.45305 9.89333 8.51305 9.7 7.91305 9.7C7.32638 9.7 6.91971 9.96 6.69305 10.48C6.47971 11 6.37305 11.8267 6.37305 12.96C6.37305 14.08 6.47305 14.9 6.67305 15.42C6.88638 15.9267 7.31305 16.18 7.95305 16.18C8.13971 16.18 8.49971 16.1267 9.03305 16.02V14.5H8.13305V12.14H11.953V19H9.59305L9.27305 18.36H9.19305C8.96638 18.5467 8.78638 18.6867 8.65305 18.78C8.27971 19.06 7.75305 19.2 7.07305 19.2C4.28638 19.2 2.89305 17.0933 2.89305 12.88C2.89305 10.7733 3.25971 9.16667 3.99305 8.06C4.72638 6.94 5.95971 6.38 7.69305 6.38C9.07971 6.38 10.273 6.59333 11.273 7.02L10.733 10.28ZM22.1241 10.52C22.1241 11.2667 22.0108 11.8867 21.7841 12.38C21.5575 12.8733 21.2041 13.32 20.7241 13.72L22.3841 19H18.6841L17.4441 14.52H16.9841V19H13.6241V6.58H18.2641C19.5975 6.58 20.5708 6.89333 21.1841 7.52C21.8108 8.14667 22.1241 9.14667 22.1241 10.52ZM17.5041 12.42C17.8508 12.42 18.0975 12.32 18.2441 12.12C18.3908 11.92 18.4641 11.56 18.4641 11.04C18.4641 10.5067 18.3908 10.14 18.2441 9.94C18.0975 9.72667 17.8575 9.62 17.5241 9.62H16.9841V12.42H17.5041Z" fill="#ECECE7"/>
</svg>
