<svg width="26" height="26" viewBox="0 0 26 26" fill="none" xmlns="http://www.w3.org/2000/svg">
<g clip-path="url(#clip0_1013_2869)">
<path d="M13.0001 0.304688C5.82129 0.304688 0 6.1249 0 13.3048C0 19.0486 3.72493 23.9216 8.89027 25.6406C9.53997 25.7609 9.7785 25.3585 9.7785 25.0152C9.7785 24.7052 9.76644 23.6811 9.76084 22.5948C6.1442 23.3812 5.38105 21.061 5.38105 21.061C4.78968 19.5584 3.93762 19.1588 3.93762 19.1588C2.75812 18.3519 4.02653 18.3685 4.02653 18.3685C5.33196 18.4602 6.01934 19.7082 6.01934 19.7082C7.17882 21.6956 9.06055 21.121 9.80239 20.7889C9.91907 19.9487 10.256 19.3752 10.6278 19.0505C7.74026 18.7218 4.70486 17.6071 4.70486 12.6258C4.70486 11.2065 5.2127 10.0468 6.04431 9.1364C5.90934 8.80896 5.46436 7.48674 6.17025 5.69607C6.17025 5.69607 7.26192 5.34667 9.74621 7.02863C10.7832 6.74059 11.8953 6.59614 13.0001 6.59119C14.1049 6.59614 15.2179 6.74059 16.2568 7.02863C18.7381 5.34667 19.8282 5.69607 19.8282 5.69607C20.5359 7.48674 20.0907 8.80896 19.9557 9.1364C20.7892 10.0468 21.2936 11.2065 21.2936 12.6258C21.2936 17.6189 18.2524 18.7184 15.3576 19.0402C15.8239 19.4436 16.2394 20.2348 16.2394 21.4476C16.2394 23.1871 16.2243 24.587 16.2243 25.0152C16.2243 25.3611 16.4583 25.7665 17.1173 25.6388C22.2798 23.9179 26 19.0466 26 13.3048C26 6.1249 20.1796 0.304688 13.0001 0.304688ZM4.86896 18.8236C4.84033 18.8882 4.73872 18.9076 4.64615 18.8632C4.55186 18.8208 4.4989 18.7328 4.52947 18.668C4.55746 18.6015 4.65928 18.5829 4.75336 18.6275C4.84787 18.6699 4.90169 18.7588 4.86896 18.8236ZM5.50842 19.3942C5.44642 19.4517 5.32522 19.425 5.24299 19.3341C5.15795 19.2435 5.14202 19.1223 5.20488 19.064C5.26882 19.0065 5.38636 19.0334 5.47161 19.124C5.55665 19.2157 5.57322 19.3361 5.50842 19.3942ZM5.94712 20.1242C5.86747 20.1796 5.73722 20.1277 5.65671 20.0121C5.57706 19.8965 5.57706 19.7578 5.65843 19.7023C5.73916 19.6468 5.86747 19.6967 5.94906 19.8114C6.02849 19.929 6.02849 20.0676 5.94712 20.1242ZM6.68904 20.9697C6.61779 21.0483 6.46602 21.0272 6.35494 20.92C6.24127 20.8152 6.20962 20.6664 6.2811 20.5878C6.35321 20.509 6.50584 20.5312 6.61779 20.6376C6.73059 20.7422 6.76504 20.892 6.68904 20.9697ZM7.64791 21.2552C7.61648 21.357 7.47031 21.4033 7.32306 21.36C7.17603 21.3154 7.0798 21.1962 7.10951 21.0933C7.14008 20.9908 7.28689 20.9426 7.43522 20.9889C7.58204 21.0332 7.67848 21.1516 7.64791 21.2552ZM8.73914 21.3762C8.7428 21.4834 8.61794 21.5723 8.46337 21.5743C8.30794 21.5777 8.18222 21.491 8.1805 21.3855C8.1805 21.2772 8.30256 21.1892 8.45799 21.1866C8.61256 21.1836 8.73914 21.2697 8.73914 21.3762ZM9.81116 21.3351C9.82967 21.4398 9.72225 21.5472 9.56875 21.5758C9.41785 21.6034 9.27813 21.5388 9.25897 21.435C9.24024 21.3278 9.3496 21.2204 9.5003 21.1926C9.654 21.1659 9.79157 21.2288 9.81116 21.3351Z" fill="#0E0E0D"/>
</g>
<defs>
<clipPath id="clip0_1013_2869">
<rect width="26" height="26" fill="white"/>
</clipPath>
</defs>
</svg>
