<svg width="54" height="48" viewBox="0 0 54 48" fill="none" xmlns="http://www.w3.org/2000/svg">
<path d="M20.064 19.072C16.992 18.144 14.736 17.68 13.296 17.68C11.888 17.68 10.912 18.304 10.368 19.552C9.856 20.8 9.6 22.784 9.6 25.504C9.6 28.192 9.84 30.16 10.32 31.408C10.832 32.624 11.856 33.232 13.392 33.232C13.84 33.232 14.704 33.104 15.984 32.848V29.2H13.824V23.536H22.992V40H17.328L16.56 38.464H16.368C15.824 38.912 15.392 39.248 15.072 39.472C14.176 40.144 12.912 40.48 11.28 40.48C4.592 40.48 1.248 35.424 1.248 25.312C1.248 20.256 2.128 16.4 3.888 13.744C5.648 11.056 8.608 9.712 12.768 9.712C16.096 9.712 18.96 10.224 21.36 11.248L20.064 19.072ZM47.4026 19.648C47.4026 21.44 47.1306 22.928 46.5866 24.112C46.0426 25.296 45.1946 26.368 44.0426 27.328L48.0266 40H39.1466L36.1706 29.248H35.0666V40H27.0026V10.192H38.1386C41.3386 10.192 43.6746 10.944 45.1466 12.448C46.6506 13.952 47.4026 16.352 47.4026 19.648ZM36.3146 24.208C37.1466 24.208 37.7386 23.968 38.0906 23.488C38.4426 23.008 38.6186 22.144 38.6186 20.896C38.6186 19.616 38.4426 18.736 38.0906 18.256C37.7386 17.744 37.1626 17.488 36.3626 17.488H35.0666V24.208H36.3146Z" fill="#ECECE7"/>
</svg>
