<svg width="130" height="87" viewBox="0 0 130 87" fill="none" xmlns="http://www.w3.org/2000/svg">
<mask id="path-1-outside-1_234_149" maskUnits="userSpaceOnUse" x="-0.327999" y="-0.231934" width="130" height="87" fill="black">
<rect fill="white" x="-0.327999" y="-0.231934" width="130" height="87"/>
<path d="M52.176 26.9601C43.984 24.4854 37.968 23.2481 34.128 23.2481C30.3733 23.2481 27.7707 24.9121 26.32 28.2401C24.9547 31.5681 24.272 36.8587 24.272 44.1121C24.272 51.2801 24.912 56.5281 26.192 59.8561C27.5573 63.0987 30.288 64.7201 34.384 64.7201C35.5787 64.7201 37.8827 64.3787 41.296 63.6961V53.9681H35.536V38.8641H59.984V82.7681H44.88L42.832 78.6721H42.32C40.8693 79.8667 39.7173 80.7627 38.864 81.3601C36.4747 83.1521 33.104 84.0481 28.752 84.0481C10.9173 84.0481 2 70.5654 2 43.6001C2 30.1174 4.34667 19.8347 9.04 12.7521C13.7333 5.58406 21.6267 2.00006 32.72 2.00006C41.5947 2.00006 49.232 3.36539 55.632 6.09606L52.176 26.9601ZM125.079 28.4961C125.079 33.2747 124.354 37.2427 122.903 40.4001C121.452 43.5574 119.191 46.4161 116.119 48.9761L126.743 82.7681H103.063L95.127 54.0961H92.183V82.7681H70.679V3.28006H100.375C108.908 3.28006 115.138 5.2854 119.063 9.29607C123.074 13.3067 125.079 19.7067 125.079 28.4961ZM95.511 40.6561C97.7297 40.6561 99.3083 40.0161 100.247 38.7361C101.186 37.4561 101.655 35.1521 101.655 31.8241C101.655 28.4107 101.186 26.0641 100.247 24.7841C99.3083 23.4187 97.7723 22.7361 95.639 22.7361H92.183V40.6561H95.511Z"/>
</mask>
<path d="M52.176 26.9601L51.5976 28.8746L53.7771 29.533L54.1491 27.2869L52.176 26.9601ZM26.32 28.2401L24.4866 27.4409L24.4779 27.4608L24.4697 27.4809L26.32 28.2401ZM26.192 59.8561L24.3253 60.574L24.3366 60.6033L24.3487 60.6322L26.192 59.8561ZM41.296 63.6961L41.6882 65.6572L43.296 65.3357V63.6961H41.296ZM41.296 53.9681H43.296V51.9681H41.296V53.9681ZM35.536 53.9681H33.536V55.9681H35.536V53.9681ZM35.536 38.8641V36.8641H33.536V38.8641H35.536ZM59.984 38.8641H61.984V36.8641H59.984V38.8641ZM59.984 82.7681V84.7681H61.984V82.7681H59.984ZM44.88 82.7681L43.0912 83.6625L43.6439 84.7681H44.88V82.7681ZM42.832 78.6721L44.6209 77.7776L44.0681 76.6721H42.832V78.6721ZM42.32 78.6721V76.6721H41.6025L41.0486 77.1282L42.32 78.6721ZM38.864 81.3601L37.7171 79.7216L37.6902 79.7404L37.664 79.7601L38.864 81.3601ZM9.04 12.7521L10.7072 13.8568L10.7132 13.8476L9.04 12.7521ZM55.632 6.09606L57.6051 6.4229L57.8618 4.87302L56.4169 4.25651L55.632 6.09606ZM52.176 26.9601L52.7544 25.0455C44.5472 22.5663 38.2865 21.2481 34.128 21.2481V23.2481V25.2481C37.6495 25.2481 43.4208 26.4045 51.5976 28.8746L52.176 26.9601ZM34.128 23.2481V21.2481C31.9517 21.2481 29.969 21.7329 28.2827 22.811C26.5918 23.8921 25.3421 25.4783 24.4866 27.4409L26.32 28.2401L28.1534 29.0392C28.7486 27.6738 29.5256 26.764 30.4373 26.1811C31.3537 25.5952 32.5497 25.2481 34.128 25.2481V23.2481ZM26.32 28.2401L24.4697 27.4809C22.9486 31.1885 22.272 36.8088 22.272 44.1121H24.272H26.272C26.272 36.9086 26.9607 31.9477 28.1703 28.9992L26.32 28.2401ZM24.272 44.1121H22.272C22.272 51.3286 22.9068 56.8859 24.3253 60.574L26.192 59.8561L28.0587 59.1381C26.9172 56.1703 26.272 51.2316 26.272 44.1121H24.272ZM26.192 59.8561L24.3487 60.6322C25.1786 62.6032 26.47 64.1711 28.2429 65.2238C29.9946 66.2638 32.0787 66.7201 34.384 66.7201V64.7201V62.7201C32.5933 62.7201 31.2641 62.3656 30.2851 61.7844C29.3274 61.2157 28.5707 60.3516 28.0353 59.08L26.192 59.8561ZM34.384 64.7201V66.7201C35.8083 66.7201 38.3039 66.3341 41.6882 65.6572L41.296 63.6961L40.9038 61.7349C37.4615 62.4234 35.349 62.7201 34.384 62.7201V64.7201ZM41.296 63.6961H43.296V53.9681H41.296H39.296V63.6961H41.296ZM41.296 53.9681V51.9681H35.536V53.9681V55.9681H41.296V53.9681ZM35.536 53.9681H37.536V38.8641H35.536H33.536V53.9681H35.536ZM35.536 38.8641V40.8641H59.984V38.8641V36.8641H35.536V38.8641ZM59.984 38.8641H57.984V82.7681H59.984H61.984V38.8641H59.984ZM59.984 82.7681V80.7681H44.88V82.7681V84.7681H59.984V82.7681ZM44.88 82.7681L46.6689 81.8736L44.6209 77.7776L42.832 78.6721L41.0432 79.5665L43.0912 83.6625L44.88 82.7681ZM42.832 78.6721V76.6721H42.32V78.6721V80.6721H42.832V78.6721ZM42.32 78.6721L41.0486 77.1282C39.6117 78.3115 38.5067 79.1689 37.7171 79.7216L38.864 81.3601L40.0109 82.9985C40.928 82.3566 42.1269 81.422 43.5914 80.2159L42.32 78.6721ZM38.864 81.3601L37.664 79.7601C35.7471 81.1977 32.8614 82.0481 28.752 82.0481V84.0481V86.0481C33.3466 86.0481 37.2022 85.1064 40.064 82.9601L38.864 81.3601ZM28.752 84.0481V82.0481C20.4241 82.0481 14.4015 78.9492 10.3562 72.8328C6.21488 66.5713 4 56.9257 4 43.6001H2H9.53674e-07C9.53674e-07 57.2398 2.24379 67.8181 7.01985 75.0394C11.8918 82.4056 19.2452 86.0481 28.752 86.0481V84.0481ZM2 43.6001H4C4 30.2989 6.32392 20.4716 10.7072 13.8568L9.04 12.7521L7.37282 11.6473C2.36942 19.1979 9.53674e-07 29.9358 9.53674e-07 43.6001H2ZM9.04 12.7521L10.7132 13.8476C14.9294 7.40839 22.0778 4.00006 32.72 4.00006V2.00006V6.10352e-05C21.1755 6.10352e-05 12.5373 3.75974 7.36676 11.6565L9.04 12.7521ZM32.72 2.00006V4.00006C41.3963 4.00006 48.7534 5.33564 54.8471 7.93562L55.632 6.09606L56.4169 4.25651C49.7106 1.39515 41.793 6.10352e-05 32.72 6.10352e-05V2.00006ZM55.632 6.09606L53.6589 5.76923L50.2029 26.6332L52.176 26.9601L54.1491 27.2869L57.6051 6.4229L55.632 6.09606ZM122.903 40.4001L121.086 39.5651V39.5651L122.903 40.4001ZM116.119 48.9761L114.839 47.4396L113.809 48.2975L114.211 49.5759L116.119 48.9761ZM126.743 82.7681V84.7681H129.468L128.651 82.1682L126.743 82.7681ZM103.063 82.7681L101.135 83.3016L101.541 84.7681H103.063V82.7681ZM95.127 54.0961L97.0545 53.5626L96.6486 52.0961H95.127V54.0961ZM92.183 54.0961V52.0961H90.183V54.0961H92.183ZM92.183 82.7681V84.7681H94.183V82.7681H92.183ZM70.679 82.7681H68.679V84.7681H70.679V82.7681ZM70.679 3.28006V1.28006H68.679V3.28006H70.679ZM119.063 9.29607L117.634 10.695L117.641 10.7027L117.649 10.7103L119.063 9.29607ZM100.247 38.7361L101.86 39.9188H101.86L100.247 38.7361ZM100.247 24.7841L98.5989 25.9171L98.6162 25.9422L98.6342 25.9668L100.247 24.7841ZM92.183 22.7361V20.7361H90.183V22.7361H92.183ZM92.183 40.6561H90.183V42.6561H92.183V40.6561ZM125.079 28.4961H123.079C123.079 33.0882 122.38 36.7486 121.086 39.5651L122.903 40.4001L124.72 41.2351C126.328 37.7369 127.079 33.4612 127.079 28.4961H125.079ZM122.903 40.4001L121.086 39.5651C119.777 42.4134 117.716 45.0417 114.839 47.4396L116.119 48.9761L117.399 50.5125C120.666 47.7904 123.128 44.7014 124.72 41.2351L122.903 40.4001ZM116.119 48.9761L114.211 49.5759L124.835 83.3679L126.743 82.7681L128.651 82.1682L118.027 48.3762L116.119 48.9761ZM126.743 82.7681V80.7681H103.063V82.7681V84.7681H126.743V82.7681ZM103.063 82.7681L104.991 82.2346L97.0545 53.5626L95.127 54.0961L93.1995 54.6296L101.135 83.3016L103.063 82.7681ZM95.127 54.0961V52.0961H92.183V54.0961V56.0961H95.127V54.0961ZM92.183 54.0961H90.183V82.7681H92.183H94.183V54.0961H92.183ZM92.183 82.7681V80.7681H70.679V82.7681V84.7681H92.183V82.7681ZM70.679 82.7681H72.679V3.28006H70.679H68.679V82.7681H70.679ZM70.679 3.28006V5.28006H100.375V3.28006V1.28006H70.679V3.28006ZM100.375 3.28006V5.28006C108.647 5.28006 114.242 7.22918 117.634 10.695L119.063 9.29607L120.492 7.89714C116.034 3.34161 109.17 1.28006 100.375 1.28006V3.28006ZM119.063 9.29607L117.649 10.7103C121.122 14.1839 123.079 19.9528 123.079 28.4961H125.079H127.079C127.079 19.4606 125.025 12.4296 120.477 7.88185L119.063 9.29607ZM95.511 40.6561V42.6561C98.0956 42.6561 100.409 41.8978 101.86 39.9188L100.247 38.7361L98.6342 37.5533C98.2081 38.1344 97.3637 38.6561 95.511 38.6561V40.6561ZM100.247 38.7361L101.86 39.9188C103.207 38.0812 103.655 35.1973 103.655 31.8241H101.655H99.655C99.655 35.1068 99.1639 36.831 98.6342 37.5533L100.247 38.7361ZM101.655 31.8241H103.655C103.655 28.379 103.211 25.4441 101.86 23.6013L100.247 24.7841L98.6342 25.9668C99.1602 26.684 99.655 28.4425 99.655 31.8241H101.655ZM100.247 24.7841L101.895 23.651C100.478 21.5894 98.2196 20.7361 95.639 20.7361V22.7361V24.7361C97.325 24.7361 98.1389 25.248 98.5989 25.9171L100.247 24.7841ZM95.639 22.7361V20.7361H92.183V22.7361V24.7361H95.639V22.7361ZM92.183 22.7361H90.183V40.6561H92.183H94.183V22.7361H92.183ZM92.183 40.6561V42.6561H95.511V40.6561V38.6561H92.183V40.6561Z" fill="#0E0E0D" mask="url(#path-1-outside-1_234_149)"/>
</svg>
